HIERARCHY
ROOT Hips
{
	OFFSET 0.00000 0.00000 0.00000
	CHANNELS 6 Xposition Yposition Zposition Yrotation Zrotation Xrotation 
	JOINT Lumbar
	{
		OFFSET 0 0 0
		CHANNELS 3 Zrotation Xrotation Yrotation
		JOINT Neck
		{
			OFFSET 0.00 0.2701 0.00
			CHANNELS 3 Zrotation Xrotation Yrotation
			End Site
			{
				OFFSET 0.00 0.1379 0.00
			}
		}
		JOINT RightShoulder
		{
			OFFSET 0.0119 0.2289 0.1181
			CHANNELS 3 Zrotation Xrotation Yrotation
			JOINT RightElbow
			{
				OFFSET 0.00 -0.1475 0.00
				CHANNELS 2 Zrotation Yrotation
				JOINT RightWrist
				{
					OFFSET 0.00 -0.1605 0.00
					CHANNELS 2 Zrotation Xrotation
					End Site
					{
						OFFSET 0.0040 -0.1068 0.0006
					}
				}
			}
		}
		JOINT LeftShoulder
		{
			OFFSET 0.0119 0.2289 -0.1181
			CHANNELS 3 Zrotation Xrotation Yrotation
			JOINT LeftElbow
			{
				OFFSET 0.00 -0.1475 0.00
				CHANNELS 2 Zrotation Yrotation
				JOINT LeftWrist
				{
					OFFSET 0.00 -0.1605 0.00
					CHANNELS 2 Zrotation Xrotation
					End Site
					{
						OFFSET 0.0040 -0.1068 -0.0006
					}
				}
			}
		}
	}
	JOINT RightHip
	{
		OFFSET 0.0316 -0.0424 0.0458
		CHANNELS 3 Zrotation Xrotation Yrotation
		JOINT RightKnee
		{
			OFFSET 0.00 -0.2438 0.00
			CHANNELS 1 Zrotation
			JOINT RightAnkle
			{
				OFFSET 0.00 -0.2449 0.00
				CHANNELS 3 Zrotation Xrotation Yrotation
				End Site
				{
					OFFSET 0.1237 -0.0542 0.0051
				}
			}
		}
	}
	JOINT LeftHip
	{
		OFFSET 0.0316 -0.0424 -0.0458
		CHANNELS 3 Zrotation Xrotation Yrotation
		JOINT LeftKnee
		{
			OFFSET 0.00 -0.2438 0.00
			CHANNELS 1 Zrotation
			JOINT LeftAnkle
			{
				OFFSET 0.00 -0.2449 0.00
				CHANNELS 3 Zrotation Xrotation Yrotation
				End Site
				{
					OFFSET 0.1237 -0.0542 -0.0051
				}
			}
		}
	}
}
MOTION
Frames: 25
Frame Time: 0.02
-0.6719 -0.01937 -0.48793 208.11935 -30.81684 -2.1393 36.71196 4.5396 -2.90136 -4.09339 -5.0381 -0.83066 19.64297 -4.16707 13.01451 32.22331 90.37385 3.97917 10.10057 3.40519 -1.65434 -63.85383 97.42378 -108.74886 35.14576 -0.03961 15.23169 6.69627 -8.1564 -18.36535 -6.85737 -4.69516 -3.15187 47.46755 11.88219 -4.43139 -26.04681 -8.38555 4.43405 3.06863
-0.67634 -0.01919 -0.48042 208.6533 -30.4487 -2.09625 36.6203 4.35022 -2.89657 -4.22977 -5.34439 -0.83066 18.51757 -4.83152 10.32647 30.07264 98.18128 5.54977 10.03784 3.5027 -1.7847 -63.864 97.42679 -109.41499 35.65374 0.01616 16.82513 5.88085 -8.97302 -23.10843 -7.60306 -3.84084 -2.69121 46.39381 11.38394 -4.10608 -26.32698 -8.19848 4.41943 3.05221
-0.68059 -0.01923 -0.47293 209.23373 -30.008 -2.0435 36.45408 4.16922 -2.88003 -4.41755 -5.61642 -0.83066 17.35651 -5.5206 7.39699 28.11305 107.96967 7.55594 9.61901 3.66068 -1.86527 -63.88003 97.5009 -110.2261 36.14462 0.12428 18.61095 5.03811 -9.05709 -28.19016 -7.75567 -4.41966 -3.03433 45.26514 10.91229 -3.60461 -26.62982 -7.98367 4.39635 3.02935
-0.68491 -0.01916 -0.46547 209.79971 -29.59761 -1.99776 36.31678 3.98688 -2.88735 -4.59181 -5.90659 -0.83066 16.18722 -6.19046 4.63832 26.14096 116.56799 9.32059 9.37373 3.79133 -1.95555 -63.8928 97.53814 -110.9416 36.6221 0.20491 20.29631 4.23023 -9.50617 -33.06636 -8.18939 -4.27806 -2.9744 44.15268 10.43429 -3.1924 -26.90552 -7.78434 4.37602 3.0089
-0.68927 -0.01914 -0.45781 210.34176 -29.19612 -1.93798 36.19833 3.79259 -2.81792 -4.72504 -6.18987 -0.83066 15.11595 -6.89569 1.60941 23.85971 126.39506 11.26877 9.08438 3.92117 -2.10092 -63.90797 97.59305 -111.78263 37.19089 0.2999 22.05163 3.32331 -9.9292 -38.20076 -8.5823 -4.27557 -2.99183 43.07267 9.92572 -2.74982 -27.25218 -7.57218 4.36167 2.99139
-0.69352 -0.01906 -0.45058 210.94344 -28.76165 -1.90705 36.02488 3.62635 -2.90476 -4.95481 -6.47706 -0.83066 13.8348 -7.53304 -0.90586 22.26504 134.13454 12.93867 8.79915 4.06626 -2.12049 -63.9196 97.62981 -112.39673 37.56535 0.37806 23.70309 2.61753 -10.1942 -42.85405 -8.91343 -4.38074 -3.06958 41.91654 9.4916 -2.32254 -27.4567 -7.38052 4.33188 2.96568
-0.69758 -0.01875 -0.4445 211.69392 -28.23057 -1.94909 35.70317 3.52847 -3.42894 -5.45009 -6.79307 -0.83067 11.97388 -7.97033 -1.98475 22.53111 135.58211 13.72767 8.62521 4.24955 -1.79243 -63.91984 97.58462 -112.34696 37.39815 0.39479 24.9965 2.47776 -10.1548 -46.19483 -9.25382 -4.45376 -3.12993 40.52931 9.23102 -2.01854 -27.26019 -7.25125 4.2672 2.92237
-0.70154 -0.01838 -0.43887 212.50294 -27.67323 -2.02232 35.33143 3.45993 -4.10986 -6.03859 -7.112 -0.83067 9.90577 -8.33925 -2.52961 23.47839 134.86689 14.22209 8.46495 4.44445 -1.34143 -63.91637 97.52137 -112.06404 37.03682 0.39328 26.18059 2.54121 -9.97385 -49.01509 -9.54539 -4.60396 -3.23286 39.07405 9.04934 -1.72994 -26.92043 -7.14386 4.18627 2.87046
-0.70554 -0.01804 -0.43306 213.28754 -27.14316 -2.0878 34.99243 3.38276 -4.71723 -6.57708 -7.42279 -0.83067 7.93832 -8.74367 -3.29073 24.10628 135.16874 14.85594 8.28912 4.62676 -0.95481 -63.91476 97.47601 -111.88909 36.77062 0.40171 27.42843 2.50982 -9.87295 -52.00675 -9.83577 -4.72681 -3.31973 37.67256 8.84941 -1.40649 -26.64817 -7.02716 4.10869 2.82002
-0.70956 -0.01771 -0.42712 214.0649 -26.54565 -2.12659 34.609 3.28618 -5.33494 -7.15007 -7.76107 -0.83068 5.93994 -9.13083 -4.17168 24.78426 135.39625 15.48388 8.13943 4.84107 -0.53116 -63.91263 97.39258 -111.711 36.47665 0.40509 28.62484 2.48819 -9.68388 -55.29332 -10.20399 -4.86342 -3.41876 36.17233 8.57783 -1.18743 -26.36648 -6.9067 4.04712 2.77915
-0.71351 -0.01733 -0.42156 214.87029 -26.08354 -2.22753 34.30669 3.2367 -5.96728 -7.67211 -8.0434 -0.83068 3.95998 -9.53668 -4.67351 25.51475 135.2383 16.04553 7.9444 4.9919 -0.15534 -63.91061 97.38283 -111.48182 36.1922 0.41385 29.89866 2.49447 -9.65184 -57.82817 -10.40653 -4.9726 -3.49301 34.86273 8.47158 -0.76581 -26.07023 -6.7998 3.94939 2.71703
-0.7173 -0.0168 -0.41691 215.74101 -26.00053 -2.50094 34.24554 3.31184 -6.61191 -8.03505 -8.16863 -0.83068 2.059 -10.01622 -4.25318 26.24412 134.54083 16.519 7.61185 4.95434 0.05201 -63.90979 97.58416 -111.17125 36.00175 0.44274 31.42158 2.53249 -10.10457 -58.49014 -10.16315 -4.97777 -3.48281 34.09329 8.82302 0.29598 -25.7674 -6.72381 3.74754 2.59269
-0.72101 -0.01622 -0.41264 216.63718 -26.05549 -2.83424 34.26734 3.43304 -7.2638 -8.34236 -8.23783 -0.83068 0.18839 -10.51557 -3.46987 26.99839 133.5204 16.92927 7.23668 4.85429 0.20811 -63.90915 97.85939 -110.81634 35.82361 0.47718 33.02367 2.59125 -10.71998 -58.39749 -9.75793 -4.94753 -3.44338 33.51905 9.33442 1.54765 -25.45488 -6.6611 3.5114 2.44829
-0.72475 -0.01568 -0.4082 217.52006 -26.04819 -3.13463 34.24811 3.53193 -7.90599 -8.67206 -8.33428 -0.83068 -1.68149 -11.00244 -2.85509 27.72631 132.64124 17.35159 6.88863 4.789 0.39131 -63.9084 98.09822 -110.47893 35.62698 0.50838 34.5827 2.63735 -11.25404 -58.59915 -9.42979 -4.93313 -3.41733 32.85733 9.75872 2.66004 -25.14777 -6.59319 3.29646 2.31686
-0.72853 -0.01507 -0.40374 218.41258 -26.0372 -3.46027 34.2406 3.63756 -8.58152 -9.01747 -8.42386 -0.83068 -3.62109 -11.50247 -2.20573 28.54004 131.71312 17.83515 6.50797 4.69649 0.56196 -63.90772 98.34801 -110.14359 35.47905 0.54236 36.16747 2.70279 -11.81607 -58.98877 -9.08392 -4.92405 -3.3932 32.18716 10.2456 3.99266 -24.83195 -6.52239 3.05738 2.16902
-0.73222 -0.0146 -0.39942 219.28993 -26.06811 -3.74698 34.22977 3.73986 -9.18619 -9.31548 -8.51364 -0.83068 -5.40414 -11.97963 -1.55039 29.17401 130.83572 18.17887 6.18517 4.6467 0.74599 -63.90689 98.59316 -109.79776 35.23381 0.57167 37.71943 2.73197 -12.35787 -58.8137 -8.7382 -4.89342 -3.35704 31.58287 10.64035 4.91566 -24.53319 -6.46061 2.86045 2.05049
-0.73569 -0.01455 -0.39536 220.12225 -26.17179 -3.91281 34.18361 3.82017 -9.60232 -9.49774 -8.62434 -0.83068 -6.7725 -12.39782 -0.9595 29.28478 130.20472 18.16125 6.03187 4.72062 0.97002 -63.90608 98.8042 -109.42257 34.72937 0.59041 39.15563 2.63987 -12.82827 -57.2719 -8.4256 -4.81692 -3.29713 31.1043 10.73047 4.6274 -24.28969 -6.41945 2.79029 2.01994
-0.73908 -0.01465 -0.39143 220.93771 -26.31465 -4.03701 34.13265 3.89574 -9.94466 -9.63353 -8.73585 -0.83069 -7.9808 -12.79077 -0.37996 29.21414 129.64076 18.00458 5.93868 4.841 1.21047 -63.90481 99.00881 -109.04111 34.12542 0.60375 40.55708 2.51241 -13.26949 -55.18951 -8.12039 -4.71835 -3.22531 30.68702 10.7241 3.92635 -24.06317 -6.387 2.76344 2.01926
-0.74251 -0.01469 -0.38746 221.75838 -26.44583 -4.17927 34.08795 3.97428 -10.31388 -9.78903 -8.84274 -0.83069 -9.25542 -13.18992 0.19792 29.23676 129.03985 17.90714 5.81804 4.94681 1.44894 -63.90376 99.21843 -108.67168 33.55952 0.61714 41.97952 2.41082 -13.70828 -53.35121 -7.81661 -4.62625 -3.15721 30.24781 10.76866 3.43694 -23.82597 -6.35111 2.71558 2.00353
-0.74592 -0.01471 -0.38345 222.58966 -26.55628 -4.32724 34.02875 4.05078 -10.71066 -9.94832 -8.96596 -0.83069 -10.55873 -13.61274 0.8206 29.21526 128.4567 17.82482 5.69525 5.02446 1.66236 -63.90363 99.42139 -108.26384 33.02333 0.6405 43.38521 2.26922 -14.21674 -51.49048 -7.4868 -4.54858 -3.09556 29.79113 10.78859 2.85416 -23.60141 -6.3135 2.67217 1.99323
-0.74935 -0.01479 -0.37953 223.3953 -26.71699 -4.45268 33.99774 4.13008 -11.03353 -10.08973 -9.05568 -0.83069 -11.76152 -13.97907 1.33867 29.24185 127.85318 17.67787 5.59333 5.17053 1.93275 -63.90028 99.63624 -107.93254 32.40257 0.64221 44.81337 2.20161 -14.57376 -49.56106 -7.21525 -4.43535 -3.01767 29.38187 10.83527 2.36344 -23.35398 -6.28139 2.63017 1.97907
-0.75283 -0.01497 -0.37588 224.12731 -27.0097 -4.52517 34.04344 4.21541 -11.15984 -10.19024 -9.05623 -0.83069 -12.75182 -14.20384 1.60173 29.44722 127.21609 17.3956 5.52059 5.51249 2.35479 -63.89856 99.88065 -107.83779 31.56372 0.58136 46.33695 2.35225 -14.4954 -47.55348 -7.10216 -4.23583 -2.90126 29.09561 10.97443 2.24288 -23.04543 -6.26186 2.58222 1.94636
-0.75634 -0.0152 -0.37233 224.83529 -27.35018 -4.57605 34.11762 4.30394 -11.21585 -10.27511 -9.02256 -0.83069 -13.64152 -14.37114 1.75308 29.7069 126.55228 17.05196 5.46911 5.9186 2.8343 -63.89185 100.13768 -107.81669 30.64494 0.49959 47.87805 2.57737 -14.26898 -45.50409 -7.04847 -4.00061 -2.76861 28.85219 11.14378 2.22512 -22.71191 -6.2476 2.5343 1.90898
-0.75986 -0.01542 -0.36871 225.55865 -27.66655 -4.63749 34.17995 4.3928 -11.31141 -10.36935 -9.00262 -0.83069 -14.56075 -14.5591 1.93218 29.94022 125.87499 16.73044 5.41767 6.28364 3.28862 -63.88036 100.39186 -107.74595 29.76841 0.43016 49.396 2.76492 -14.12604 -43.49013 -6.96862 -3.77715 -2.64103 28.58418 11.30198 2.15 -22.38619 -6.23112 2.48595 1.87419
-0.76328 -0.01561 -0.36515 226.26248 -27.99551 -4.69549 34.23786 4.4744 -11.37392 -10.45257 -8.99075 -0.83069 -15.54378 -14.76872 2.20468 30.17362 125.30166 16.42735 5.32917 6.70055 3.73893 -63.89785 100.63406 -107.74097 28.86291 0.34885 50.98202 2.96736 -13.91552 -41.38359 -6.88493 -3.5702 -2.52195 28.34205 11.44678 2.10702 -22.07719 -6.21408 2.44055 1.83832
